<svg xmlns="http://www.w3.org/2000/svg" xmlns:xlink="http://www.w3.org/1999/xlink" width="1855" height="1052" viewBox="0 0 1855 1052">
  <defs>
    <clipPath id="clip-path">
      <rect id="Rectangle_164" data-name="Rectangle 164" width="158" height="158" transform="translate(37 28)" fill="#fff" stroke="#707070" stroke-width="1"/>
    </clipPath>
    <filter id="Rectangle_163" x="13" y="16" width="1847" height="1041" filterUnits="userSpaceOnUse">
      <feOffset dx="10" dy="10" input="SourceAlpha"/>
      <feGaussianBlur stdDeviation="5" result="blur"/>
      <feFlood flood-opacity="0.631"/>
      <feComposite operator="in" in2="blur"/>
      <feComposite in="SourceGraphic"/>
    </filter>
    <clipPath id="clip-path-2">
      <rect id="Rectangle_165" data-name="Rectangle 165" width="158" height="158" transform="translate(1733 922)" fill="#fff" stroke="#707070" stroke-width="1"/>
    </clipPath>
    <filter id="Rectangle_168" x="13" y="16" width="1847" height="1041" filterUnits="userSpaceOnUse">
      <feOffset dx="10" dy="10" input="SourceAlpha"/>
      <feGaussianBlur stdDeviation="5" result="blur-2"/>
      <feFlood flood-opacity="0.631"/>
      <feComposite operator="in" in2="blur-2"/>
      <feComposite in="SourceGraphic"/>
    </filter>
    <clipPath id="clip-path-3">
      <rect id="Rectangle_166" data-name="Rectangle 166" width="158" height="158" transform="translate(36 922)" fill="#fff" stroke="#707070" stroke-width="1"/>
    </clipPath>
    <filter id="Rectangle_169" x="13" y="16" width="1847" height="1041" filterUnits="userSpaceOnUse">
      <feOffset dx="10" dy="10" input="SourceAlpha"/>
      <feGaussianBlur stdDeviation="5" result="blur-3"/>
      <feFlood flood-opacity="0.631"/>
      <feComposite operator="in" in2="blur-3"/>
      <feComposite in="SourceGraphic"/>
    </filter>
    <clipPath id="clip-path-4">
      <rect id="Rectangle_167" data-name="Rectangle 167" width="158" height="158" transform="translate(1733 28)" fill="#fff" stroke="#707070" stroke-width="1"/>
    </clipPath>
    <filter id="Rectangle_170" x="13" y="16" width="1847" height="1041" filterUnits="userSpaceOnUse">
      <feOffset dx="10" dy="10" input="SourceAlpha"/>
      <feGaussianBlur stdDeviation="5" result="blur-4"/>
      <feFlood flood-opacity="0.631"/>
      <feComposite operator="in" in2="blur-4"/>
      <feComposite in="SourceGraphic"/>
    </filter>
  </defs>
  <g id="Group_71" data-name="Group 71" transform="translate(-36 -28)">
    <text id="Main_Task" data-name="Main Task" transform="translate(103 157)" fill="#007cb1" font-size="60" font-family="Arial-BoldMT, Arial" font-weight="700" letter-spacing="0.05em"><tspan x="0" y="0">Main Task</tspan></text>
    <text id="Search_and_browse_for_volunteering_events" data-name="Search and browse for volunteering events" transform="translate(103 247)" font-size="40" font-family="ArialMT, Arial" letter-spacing="0.03em"><tspan x="0" y="0">Search and browse for volunteering events</tspan></text>
    <text id="Features" transform="translate(103 372)" fill="#007cb1" font-size="60" font-family="Arial-BoldMT, Arial" font-weight="700" letter-spacing="0.05em"><tspan x="0" y="0">Features</tspan></text>
    <g id="sign-in" transform="translate(128 431.176)">
      <g id="Group_44" data-name="Group 44" transform="translate(0 36.551)">
        <path id="Path_34" data-name="Path 34" d="M282.448,40.662a13.5,13.5,0,0,0-9.9-4.111H256.98a1.466,1.466,0,0,0-1,.316,1.6,1.6,0,0,0-.486.949,8.029,8.029,0,0,0-.145,1.143,11.877,11.877,0,0,0,.025,1.289q.048.779.048.974a1.26,1.26,0,0,1,.1.657c-.033.178.081.324.34.438s.388.2.388.267.187.113.56.146l.56.048h15.18a7.809,7.809,0,0,1,7.784,7.785V84.813A7.809,7.809,0,0,1,272.55,92.6H256.982a1.469,1.469,0,0,0-1,.316,1.611,1.611,0,0,0-.487.948,8.108,8.108,0,0,0-.146,1.144,12.05,12.05,0,0,0,.025,1.289q.05.779.049.973a1.576,1.576,0,0,0,1.556,1.557H272.55a14.039,14.039,0,0,0,14.011-14.012V50.561A13.5,13.5,0,0,0,282.448,40.662Z" transform="translate(-211.831 -36.551)"/>
        <path id="Path_35" data-name="Path 35" d="M57.6,75.258a3,3,0,0,0-.925-2.19L30.213,46.6a3.114,3.114,0,0,0-5.3,2.19V62.8H3.114a3,3,0,0,0-2.19.924A2.994,2.994,0,0,0,0,65.917V84.6a2.991,2.991,0,0,0,.924,2.189,3,3,0,0,0,2.19.925h21.8v14.012a3.1,3.1,0,0,0,5.3,2.189L56.68,77.448A3,3,0,0,0,57.6,75.258Z" transform="translate(0 -44.122)"/>
      </g>
    </g>
    <text id="Sign_In" data-name="Sign In" transform="translate(115 589)" fill="#00aef8" font-size="30" font-family="ArialMT, Arial" letter-spacing="0.03em"><tspan x="0" y="0">Sign In</tspan></text>
    <text id="Ensure_a_customized_content_for_every_volunteer" data-name="Ensure a customized content for every 
volunteer" transform="translate(259 512)" font-size="36" font-family="ArialMT, Arial" letter-spacing="0.03em"><tspan x="0" y="0">Ensure a customized content for every </tspan><tspan x="0" y="42">volunteer</tspan></text>
    <g id="Search_Icon" data-name="Search Icon" transform="translate(118 666.905)">
      <path id="Bounds" d="M94.595,94.595H0V0H94.595Z" fill="none"/>
      <path id="Icon" d="M52.268,46.356H49.115l-1.182-1.182a24.67,24.67,0,0,0,6.306-16.554A25.619,25.619,0,1,0,28.619,54.239a24.67,24.67,0,0,0,16.554-6.306l1.182,1.182v3.153L66.063,71.975l5.912-5.912L52.268,46.356Zm-23.649,0A17.737,17.737,0,1,1,46.356,28.619,17.663,17.663,0,0,1,28.619,46.356Z" transform="translate(8.824 8.824)"/>
    </g>
    <text id="Search_Bar" data-name="Search Bar" transform="translate(88 798)" fill="#00aef8" font-size="30" font-family="ArialMT, Arial" letter-spacing="0.03em"><tspan x="0" y="0">Search Bar</tspan></text>
    <text id="Search_directly" data-name="Search directly" transform="translate(265 727)" font-size="36" font-family="ArialMT, Arial" letter-spacing="0.03em"><tspan x="0" y="0">Search directly</tspan></text>
    <g id="list" transform="translate(125 899.3)">
      <path id="Path_36" data-name="Path 36" d="M0,18.639H18.639V0H0Zm4.936-13.7H13.7V13.7H4.936Zm0,0"/>
      <path id="Path_37" data-name="Path 37" d="M149.3,0V18.639h59.671V0Zm54.734,13.7h-49.8V4.936h49.8Zm0,0" transform="translate(-124.735)"/>
      <path id="Path_38" data-name="Path 38" d="M0,165.647H18.639V147.008H0Zm4.936-13.7H13.7v8.767H4.936Zm0,0" transform="translate(0 -122.823)"/>
      <path id="Path_39" data-name="Path 39" d="M149.3,165.647h59.671V147.008H149.3Zm4.936-13.7h49.8v8.767h-49.8Zm0,0" transform="translate(-124.735 -122.823)"/>
      <path id="Path_40" data-name="Path 40" d="M0,312.651H18.639V294.012H0Zm4.936-13.7H13.7v8.767H4.936Zm0,0" transform="translate(0 -245.642)"/>
      <path id="Path_41" data-name="Path 41" d="M149.3,312.651h59.671V294.012H149.3Zm4.936-13.7h49.8v8.767h-49.8Zm0,0" transform="translate(-124.735 -245.642)"/>
    </g>
    <text id="Category" transform="translate(101 1014)" fill="#00aef8" font-size="30" font-family="ArialMT, Arial" letter-spacing="0.03em"><tspan x="0" y="0">Category</tspan></text>
    <text id="Browse_by_interested_category" data-name="Browse by interested category" transform="translate(265 945)" font-size="36" font-family="ArialMT, Arial" letter-spacing="0.03em"><tspan x="0" y="0">Browse by interested category</tspan></text>
    <g id="profiles" transform="translate(975.063 441.461)">
      <g id="Group_46" data-name="Group 46" transform="translate(38.937)">
        <g id="Group_45" data-name="Group 45">
          <path id="Path_42" data-name="Path 42" d="M101.294,0H44.711a5.78,5.78,0,0,0-5.774,5.774V25.4a1.925,1.925,0,1,0,3.849,0V5.774a1.927,1.927,0,0,1,1.925-1.925h56.583a1.927,1.927,0,0,1,1.925,1.925V77.368a1.927,1.927,0,0,1-1.925,1.925H44.711a1.927,1.927,0,0,1-1.925-1.925V41.635a1.925,1.925,0,1,0-3.849,0V77.368a5.78,5.78,0,0,0,5.774,5.774h56.583a5.78,5.78,0,0,0,5.774-5.774V5.774A5.78,5.78,0,0,0,101.294,0Z" transform="translate(-38.937)"/>
        </g>
      </g>
      <g id="Group_48" data-name="Group 48" transform="translate(38.937 32.098)">
        <g id="Group_47" data-name="Group 47" transform="translate(0)">
          <path id="Path_43" data-name="Path 43" d="M42.222,167.342a1.925,1.925,0,1,0,.564,1.361A1.936,1.936,0,0,0,42.222,167.342Z" transform="translate(-38.937 -166.78)"/>
        </g>
      </g>
      <g id="Group_50" data-name="Group 50" transform="translate(46.647 87.003)">
        <g id="Group_49" data-name="Group 49" transform="translate(0)">
          <path id="Path_44" data-name="Path 44" d="M82.281,452.624a1.924,1.924,0,1,0,.564,1.361A1.935,1.935,0,0,0,82.281,452.624Z" transform="translate(-78.996 -452.06)"/>
        </g>
      </g>
      <g id="Group_52" data-name="Group 52" transform="translate(54.346 7.71)">
        <g id="Group_51" data-name="Group 51">
          <path id="Path_45" data-name="Path 45" d="M177.507,40.063a1.925,1.925,0,0,0-1.925,1.925v75.444a1.927,1.927,0,0,1-1.925,1.925H120.925a1.925,1.925,0,0,0,0,3.849h52.734a5.78,5.78,0,0,0,5.774-5.774V41.988A1.925,1.925,0,0,0,177.507,40.063Z" transform="translate(-119 -40.063)"/>
        </g>
      </g>
      <g id="Group_54" data-name="Group 54" transform="translate(54.358 15.397)">
        <g id="Group_53" data-name="Group 53" transform="translate(0)">
          <path id="Path_46" data-name="Path 46" d="M185.269,80a1.925,1.925,0,0,0-1.925,1.925v75.444a1.927,1.927,0,0,1-1.925,1.925H120.988a1.925,1.925,0,1,0,0,3.849H181.42a5.78,5.78,0,0,0,5.774-5.774V81.925A1.925,1.925,0,0,0,185.269,80Z" transform="translate(-119.063 -80)"/>
        </g>
      </g>
      <g id="Group_56" data-name="Group 56" transform="translate(49.715 14.242)">
        <g id="Group_55" data-name="Group 55">
          <path id="Path_47" data-name="Path 47" d="M115.338,74H96.862a1.925,1.925,0,0,0-1.925,1.925V94.4a1.925,1.925,0,0,0,1.925,1.925h18.476a1.925,1.925,0,0,0,1.925-1.925V75.925A1.925,1.925,0,0,0,115.338,74Zm-1.925,18.476H98.786V77.849h14.627Z" transform="translate(-94.937 -74)"/>
        </g>
      </g>
      <g id="Group_58" data-name="Group 58" transform="translate(50.42 44.742)">
        <g id="Group_57" data-name="Group 57">
          <path id="Path_48" data-name="Path 48" d="M112.106,233.037a1.925,1.925,0,0,0-2.722,0l-5.116,5.116-2.379-2.379a1.925,1.925,0,1,0-2.722,2.722l3.74,3.74a1.925,1.925,0,0,0,2.722,0l6.477-6.477A1.925,1.925,0,0,0,112.106,233.037Z" transform="translate(-98.603 -232.474)"/>
        </g>
      </g>
      <g id="Group_60" data-name="Group 60" transform="translate(71.078 47.922)">
        <g id="Group_59" data-name="Group 59">
          <path id="Path_49" data-name="Path 49" d="M230.315,249H207.862a1.925,1.925,0,0,0,0,3.849h22.454a1.925,1.925,0,1,0,0-3.849Z" transform="translate(-205.937 -249)"/>
        </g>
      </g>
      <g id="Group_62" data-name="Group 62" transform="translate(78.968 14.242)">
        <g id="Group_61" data-name="Group 61" transform="translate(0)">
          <path id="Path_50" data-name="Path 50" d="M262.334,74H248.862a1.925,1.925,0,0,0,0,3.849h13.472a1.925,1.925,0,0,0,0-3.849Z" transform="translate(-246.937 -74)"/>
        </g>
      </g>
      <g id="Group_64" data-name="Group 64" transform="translate(78.968 23.48)">
        <g id="Group_63" data-name="Group 63" transform="translate(0)">
          <path id="Path_51" data-name="Path 51" d="M262.334,122H248.862a1.925,1.925,0,0,0,0,3.849h13.472a1.925,1.925,0,0,0,0-3.849Z" transform="translate(-246.937 -122)"/>
        </g>
      </g>
      <g id="Group_66" data-name="Group 66" transform="translate(78.968 32.718)">
        <g id="Group_65" data-name="Group 65" transform="translate(0)">
          <path id="Path_52" data-name="Path 52" d="M262.334,170H248.862a1.925,1.925,0,0,0,0,3.849h13.472a1.925,1.925,0,0,0,0-3.849Z" transform="translate(-246.937 -170)"/>
        </g>
      </g>
      <g id="Group_68" data-name="Group 68" transform="translate(50.42 59.439)">
        <g id="Group_67" data-name="Group 67">
          <path id="Path_53" data-name="Path 53" d="M112.106,309.4a1.925,1.925,0,0,0-2.722,0l-5.116,5.116-2.379-2.379a1.925,1.925,0,0,0-2.722,2.722l3.74,3.74a1.925,1.925,0,0,0,2.722,0l6.477-6.477A1.925,1.925,0,0,0,112.106,309.4Z" transform="translate(-98.603 -308.841)"/>
        </g>
      </g>
      <g id="Group_70" data-name="Group 70" transform="translate(71.078 62.549)">
        <g id="Group_69" data-name="Group 69">
          <path id="Path_54" data-name="Path 54" d="M230.315,325H207.862a1.925,1.925,0,0,0,0,3.849h22.454a1.925,1.925,0,0,0,0-3.849Z" transform="translate(-205.937 -325)"/>
        </g>
      </g>
    </g>
    <text id="Including_time_location_organizer_participants_etc." data-name="Including time, location, organizer, 
participants, etc." transform="translate(1149 490)" font-size="36" font-family="ArialMT, Arial" letter-spacing="0.03em"><tspan x="0" y="0">Including time, location, organizer, </tspan><tspan x="0" y="42">participants, etc.</tspan></text>
    <text id="Detail_Info" data-name="Detail Info" transform="translate(984 589)" fill="#00aef8" font-size="30" font-family="ArialMT, Arial" letter-spacing="0.03em"><tspan x="0" y="0">Detail Info</tspan></text>
    <text id="User_Profile" data-name="User Profile" transform="translate(972 808)" fill="#00aef8" font-size="30" font-family="ArialMT, Arial" letter-spacing="0.03em"><tspan x="0" y="0">User Profile</tspan></text>
    <text id="Information_about_the_user_including_name_interest_upcoming_events_etc." data-name="Information about the user, including
name, interest, upcoming events, etc." transform="translate(1155 721)" font-size="36" font-family="ArialMT, Arial" letter-spacing="0.03em"><tspan x="0" y="0">Information about the user, including</tspan><tspan x="0" y="42">name, interest, upcoming events, etc.</tspan></text>
    <g id="Person_Icon" data-name="Person Icon" transform="translate(998 673)">
      <path id="Bounds-2" data-name="Bounds" d="M1,0H115V114H1Z" fill="none"/>
      <path id="Icon-2" data-name="Icon" d="M43,42A19,19,0,1,0,24,23,19.056,19.056,0,0,0,43,42Zm0,9.5c-12.825,0-38,6.175-38,19V80H81V70.5C81,57.675,55.825,51.5,43,51.5Z" transform="translate(15 15)"/>
    </g>
    <g id="Person_add_Icon" data-name="Person add Icon" transform="translate(999.6 875)">
      <path id="Bounds-3" data-name="Bounds" d="M1,0H111.4V115H1Z" fill="none"/>
      <path id="Icon-3" data-name="Icon" d="M66.4,40.8A18.4,18.4,0,1,0,48,22.4,18.454,18.454,0,0,0,66.4,40.8ZM25,31.6V17.8H15.8V31.6H2v9.2H15.8V54.6H25V40.8H38.8V31.6ZM66.4,50c-12.42,0-36.8,5.98-36.8,18.4v9.2h73.6V68.4C103.2,55.98,78.82,50,66.4,50Z" transform="translate(3.6 14.4)"/>
    </g>
    <text id="Add_Friends" data-name="Add Friends" transform="translate(972 1014)" fill="#00aef8" font-size="30" font-family="ArialMT, Arial" letter-spacing="0.03em"><tspan x="0" y="0">Add Friends</tspan></text>
    <text id="Connect_with_others_from_the_volunteer_event" data-name="Connect with others from the volunteer
event" transform="translate(1150 924)" font-size="36" font-family="ArialMT, Arial" letter-spacing="0.03em"><tspan x="0" y="0">Connect with others from the volunteer</tspan><tspan x="0" y="42">event</tspan></text>
    <line id="Line_6" data-name="Line 6" x2="400" transform="translate(104.5 396.5)" fill="none" stroke="#cbcbcb" stroke-width="10"/>
    <line id="Line_7" data-name="Line 7" x2="400" transform="translate(104.5 179.5)" fill="none" stroke="#cbcbcb" stroke-width="10"/>
    <g id="Mask_Group_16" data-name="Mask Group 16" clip-path="url(#clip-path)">
      <g transform="matrix(1, 0, 0, 1, 36, 28)" filter="url(#Rectangle_163)">
        <g id="Rectangle_163-2" data-name="Rectangle 163" transform="translate(18 21)" fill="none" stroke="#0093d2" stroke-linecap="round" stroke-linejoin="bevel" stroke-width="10">
          <rect width="1817" height="1011" stroke="none"/>
          <rect x="5" y="5" width="1807" height="1001" fill="none"/>
        </g>
      </g>
    </g>
    <g id="Mask_Group_17" data-name="Mask Group 17" clip-path="url(#clip-path-2)">
      <g transform="matrix(1, 0, 0, 1, 36, 28)" filter="url(#Rectangle_168)">
        <g id="Rectangle_168-2" data-name="Rectangle 168" transform="translate(18 21)" fill="none" stroke="#0093d2" stroke-linecap="round" stroke-linejoin="bevel" stroke-width="10">
          <rect width="1817" height="1011" stroke="none"/>
          <rect x="5" y="5" width="1807" height="1001" fill="none"/>
        </g>
      </g>
    </g>
    <g id="Mask_Group_18" data-name="Mask Group 18" clip-path="url(#clip-path-3)">
      <g transform="matrix(1, 0, 0, 1, 36, 28)" filter="url(#Rectangle_169)">
        <g id="Rectangle_169-2" data-name="Rectangle 169" transform="translate(18 21)" fill="none" stroke="#0093d2" stroke-linecap="round" stroke-linejoin="bevel" stroke-width="10">
          <rect width="1817" height="1011" stroke="none"/>
          <rect x="5" y="5" width="1807" height="1001" fill="none"/>
        </g>
      </g>
    </g>
    <g id="Mask_Group_19" data-name="Mask Group 19" clip-path="url(#clip-path-4)">
      <g transform="matrix(1, 0, 0, 1, 36, 28)" filter="url(#Rectangle_170)">
        <g id="Rectangle_170-2" data-name="Rectangle 170" transform="translate(18 21)" fill="none" stroke="#0093d2" stroke-linecap="round" stroke-linejoin="bevel" stroke-width="10">
          <rect width="1817" height="1011" stroke="none"/>
          <rect x="5" y="5" width="1807" height="1001" fill="none"/>
        </g>
      </g>
    </g>
  </g>
</svg>
