<svg xmlns="http://www.w3.org/2000/svg" xmlns:xlink="http://www.w3.org/1999/xlink" viewBox="0 0 39.5 14.2">
  <defs>
    <style>
      .cls-1, .cls-2 {
        fill: #fff;
      }

      .cls-1, .cls-3 {
        stroke: rgba(112,112,112,0);
      }

      .cls-1 {
        font-size: 4px;
        font-family: MeiryoUI-Bold, Meiryo UI;
        font-weight: 700;
        letter-spacing: 0.05em;
      }

      .cls-2 {
        stroke: #fff;
      }

      .cls-3 {
        fill: #00aef8;
        stroke-width: 5px;
        font-size: 3.3px;
        font-family: MS-UIGothic, MS UI Gothic;
        letter-spacing: 0.78em;
      }

      .cls-4 {
        fill: url(#radial-gradient);
      }

      .cls-5 {
        stroke: none;
      }

      .cls-6 {
        fill: none;
      }
    </style>
    <radialGradient id="radial-gradient" cx="0.5" cy="0.5" r="0.5" gradientUnits="objectBoundingBox">
      <stop offset="0" stop-color="#00b1fd"/>
      <stop offset="0" stop-color="#002f42"/>
      <stop offset="0.455" stop-color="#0090cd"/>
      <stop offset="0.579" stop-color="#00567a"/>
      <stop offset="1"/>
    </radialGradient>
  </defs>
  <g id="Group_2" data-name="Group 2" transform="translate(-103 -41.3)">
    <text id="YU-KUAN" class="cls-1" transform="translate(115.5 46.5)"><tspan x="0" y="0">YU-KUAN</tspan></text>
    <g id="Ellipse_109" data-name="Ellipse 109" class="cls-2" transform="translate(103 41.3)">
      <circle class="cls-5" cx="5.243" cy="5.243" r="5.243"/>
      <circle class="cls-6" cx="5.243" cy="5.243" r="4.743"/>
    </g>
    <text id="HWANG" class="cls-3" transform="translate(115.5 50.5)"><tspan x="0" y="0">HWANG</tspan></text>
    <path id="Subtraction_16" data-name="Subtraction 16" class="cls-4" d="M5.826,10.485h0V5.839H4.648V7.024A1.179,1.179,0,0,1,3.475,5.857h0V3.827H2.3V5.846h0a2.375,2.375,0,0,0,.048.475,2.343,2.343,0,0,0,.355.842,2.363,2.363,0,0,0,1.037.854,2.345,2.345,0,0,0,.442.137,2.373,2.373,0,0,0,.469.048v2.282a5.184,5.184,0,0,1-1.83-.563A5.274,5.274,0,0,1,.092,6.234a5.362,5.362,0,0,1,0-1.983A5.277,5.277,0,0,1,2.822.562,5.184,5.184,0,0,1,4.653,0V4.649H5.832V3.475A1.179,1.179,0,0,1,7.007,4.653V6.817H8.185V4.653a2.373,2.373,0,0,0-.048-.475,2.343,2.343,0,0,0-.355-.842,2.373,2.373,0,0,0-.288-.349c-.035-.035-.071-.069-.108-.1.037-.033.073-.067.108-.1A2.36,2.36,0,0,0,8,2.036a2.345,2.345,0,0,0,.137-.442,2.373,2.373,0,0,0,.048-.47V.876a5.273,5.273,0,0,1,2.258,3.7,5.37,5.37,0,0,1-.051,1.663,5.276,5.276,0,0,1-2.733,3.69,5.184,5.184,0,0,1-1.834.56ZM5.832,2.3h0V0A5.194,5.194,0,0,1,7.007.273v.846A1.179,1.179,0,0,1,5.832,2.3Z" transform="translate(103 41.318)"/>
  </g>
</svg>
