<svg xmlns="http://www.w3.org/2000/svg" xmlns:xlink="http://www.w3.org/1999/xlink" width="350.236" height="352.435" viewBox="0 0 350.236 352.435">
  <defs>
    <radialGradient id="radial-gradient" cx="0.5" cy="0.5" r="0.5" gradientUnits="objectBoundingBox">
      <stop offset="0" stop-color="#00acf6"/>
      <stop offset="0.204" stop-color="#00212f"/>
      <stop offset="0.468" stop-color="#007fb6"/>
      <stop offset="0.579" stop-color="#005072"/>
      <stop offset="1"/>
    </radialGradient>
  </defs>
  <g id="Logo_white" transform="translate(-117 -642.764)">
    <g id="Ellipse_117" data-name="Ellipse 117" transform="translate(117 642.764)" stroke="#fff" stroke-width="1" fill="url(#radial-gradient)">
      <ellipse cx="175.118" cy="176.218" rx="175.118" ry="176.218" stroke="none"/>
      <ellipse cx="175.118" cy="176.218" rx="174.618" ry="175.718" fill="none"/>
    </g>
    <path id="Subtraction_66" data-name="Subtraction 66" d="M194.6,350.257h0V195.039H155.245v39.6a39.4,39.4,0,0,1-39.154-38.974h.1V127.85H76.835v67.436h-.1a79.3,79.3,0,0,0,1.6,15.862A78.263,78.263,0,0,0,90.179,239.29a78.933,78.933,0,0,0,34.628,28.515,78.313,78.313,0,0,0,14.774,4.586,79.265,79.265,0,0,0,15.665,1.6v76.223A173.152,173.152,0,0,1,94.133,331.4,176.187,176.187,0,0,1,3.088,208.236a179.15,179.15,0,0,1,0-66.259A176.274,176.274,0,0,1,94.26,18.769,173.163,173.163,0,0,1,155.442,0V155.318h39.352V116.09a39.4,39.4,0,0,1,39.254,39.352v72.269H273.4V155.442a79.266,79.266,0,0,0-1.6-15.862,78.262,78.262,0,0,0-11.842-28.143,79.29,79.29,0,0,0-9.611-11.648c-1.153-1.153-2.362-2.289-3.594-3.375,1.231-1.087,2.44-2.222,3.594-3.376A78.832,78.832,0,0,0,267.215,68.02,78.335,78.335,0,0,0,271.8,53.246a79.256,79.256,0,0,0,1.6-15.706V29.249a176.136,176.136,0,0,1,75.436,123.483,179.387,179.387,0,0,1-1.7,55.552,176.257,176.257,0,0,1-91.288,123.25A173.149,173.149,0,0,1,194.6,350.257Zm.2-273.52h0V0a173.494,173.494,0,0,1,39.254,9.127V37.385a39.4,39.4,0,0,1-39.254,39.353Z" transform="translate(117 643.864)" fill="#fff"/>
  </g>
</svg>
